<svg width="171" height="41" viewBox="0 0 171 41" fill="none" xmlns="http://www.w3.org/2000/svg">
<path d="M11.9583 40.4C11.6356 40.4 11.3716 40.2973 11.1663 40.092C10.961 39.8867 10.8583 39.6227 10.8583 39.3V36.264C8.62896 36 6.7663 35.4573 5.2703 34.636C3.7743 33.7853 2.64496 32.7587 1.8823 31.556C1.11963 30.3533 0.708964 29.092 0.650297 27.772C0.650297 27.5373 0.738297 27.332 0.914297 27.156C1.11963 26.9507 1.3543 26.848 1.6183 26.848H6.3263C6.70763 26.848 7.00096 26.936 7.2063 27.112C7.41163 27.2587 7.6023 27.4493 7.7783 27.684C7.98363 28.1827 8.3063 28.6667 8.7463 29.136C9.21563 29.6053 9.8463 30.0013 10.6383 30.324C11.4303 30.6173 12.413 30.764 13.5863 30.764C15.493 30.764 16.9156 30.456 17.8543 29.84C18.8223 29.224 19.3063 28.388 19.3063 27.332C19.3063 26.5693 19.0423 25.9533 18.5143 25.484C18.0156 25.0147 17.209 24.5893 16.0943 24.208C15.009 23.8267 13.5423 23.416 11.6943 22.976C9.4943 22.5067 7.63163 21.9053 6.1063 21.172C4.58096 20.4093 3.4223 19.4413 2.6303 18.268C1.86763 17.0653 1.4863 15.584 1.4863 13.824C1.4863 11.5067 2.30763 9.54133 3.9503 7.928C5.6223 6.31467 7.92496 5.31733 10.8583 4.936V1.9C10.8583 1.57733 10.961 1.31333 11.1663 1.108C11.3716 0.902666 11.6356 0.799999 11.9583 0.799999H15.0823C15.3756 0.799999 15.625 0.902666 15.8303 1.108C16.0356 1.31333 16.1383 1.57733 16.1383 1.9V5.024C18.1623 5.34667 19.849 5.96267 21.1983 6.872C22.577 7.752 23.6183 8.764 24.3223 9.908C25.0556 11.0227 25.437 12.108 25.4663 13.164C25.4663 13.3987 25.3783 13.6187 25.2023 13.824C25.0263 14 24.8063 14.088 24.5423 14.088H19.5703C19.3063 14.088 19.057 14.0293 18.8223 13.912C18.5876 13.7947 18.3823 13.5893 18.2063 13.296C18.0596 12.5333 17.5463 11.8733 16.6663 11.316C15.7863 10.7293 14.6716 10.436 13.3223 10.436C11.885 10.436 10.741 10.7 9.8903 11.228C9.03963 11.756 8.6143 12.5627 8.6143 13.648C8.6143 14.352 8.8343 14.9533 9.2743 15.452C9.7143 15.9213 10.433 16.3467 11.4303 16.728C12.4276 17.08 13.777 17.476 15.4783 17.916C18.0596 18.444 20.157 19.0747 21.7703 19.808C23.3836 20.5413 24.557 21.4947 25.2903 22.668C26.053 23.812 26.4343 25.264 26.4343 27.024C26.4343 28.7253 26.009 30.236 25.1583 31.556C24.3076 32.8467 23.105 33.888 21.5503 34.68C20.025 35.472 18.221 36 16.1383 36.264V39.3C16.1383 39.6227 16.0356 39.8867 15.8303 40.092C15.625 40.2973 15.3756 40.4 15.0823 40.4H11.9583ZM30.9783 36C30.6557 36 30.3917 35.8973 30.1863 35.692C29.981 35.4867 29.8783 35.2227 29.8783 34.9V32.26C29.8783 32.0253 29.937 31.7173 30.0543 31.336C30.201 30.9253 30.509 30.5293 30.9783 30.148L36.7863 24.384C38.9277 22.7413 40.6583 21.348 41.9783 20.204C43.3277 19.06 44.325 18.0187 44.9703 17.08C45.6157 16.1413 45.9383 15.232 45.9383 14.352C45.9383 13.208 45.6157 12.2693 44.9703 11.536C44.3543 10.7733 43.3423 10.392 41.9343 10.392C40.9957 10.392 40.2037 10.5973 39.5583 11.008C38.9423 11.3893 38.4583 11.9027 38.1063 12.548C37.7543 13.1933 37.5197 13.8973 37.4023 14.66C37.3143 15.0413 37.1237 15.3053 36.8303 15.452C36.5663 15.5987 36.2877 15.672 35.9943 15.672H31.3303C31.037 15.672 30.8023 15.584 30.6263 15.408C30.4503 15.2027 30.3623 14.9827 30.3623 14.748C30.3917 13.3987 30.6703 12.1227 31.1983 10.92C31.7557 9.71733 32.533 8.64667 33.5303 7.708C34.5277 6.76933 35.7303 6.036 37.1383 5.508C38.5463 4.95067 40.145 4.672 41.9343 4.672C44.3983 4.672 46.4663 5.08267 48.1383 5.904C49.8103 6.696 51.0717 7.796 51.9223 9.204C52.773 10.612 53.1983 12.24 53.1983 14.088C53.1983 15.496 52.905 16.8013 52.3183 18.004C51.761 19.2067 50.9397 20.3653 49.8543 21.48C48.769 22.5653 47.4783 23.6947 45.9823 24.868L40.7903 30.06H52.7583C53.081 30.06 53.345 30.1627 53.5503 30.368C53.7557 30.5733 53.8583 30.8373 53.8583 31.16V34.9C53.8583 35.2227 53.7557 35.4867 53.5503 35.692C53.345 35.8973 53.081 36 52.7583 36H30.9783ZM70.569 36.44C68.457 36.44 66.6384 36.1467 65.113 35.56C63.617 34.944 62.3704 34.108 61.373 33.052C60.405 31.9667 59.6717 30.72 59.173 29.312C58.7037 27.8747 58.425 26.3493 58.337 24.736C58.3077 23.944 58.2784 23.064 58.249 22.096C58.249 21.0987 58.249 20.1013 58.249 19.104C58.2784 18.1067 58.3077 17.1973 58.337 16.376C58.3957 14.7627 58.6744 13.252 59.173 11.844C59.701 10.436 60.4637 9.204 61.461 8.148C62.4584 7.092 63.705 6.27067 65.201 5.684C66.7264 5.068 68.5157 4.76 70.569 4.76C72.6224 4.76 74.397 5.068 75.893 5.684C77.389 6.27067 78.6357 7.092 79.633 8.148C80.6304 9.204 81.3784 10.436 81.877 11.844C82.405 13.252 82.713 14.7627 82.801 16.376C82.8304 17.1973 82.845 18.1067 82.845 19.104C82.8744 20.1013 82.8744 21.0987 82.845 22.096C82.845 23.064 82.8304 23.944 82.801 24.736C82.713 26.3493 82.4197 27.8747 81.921 29.312C81.4224 30.72 80.6744 31.9667 79.677 33.052C78.709 34.108 77.4624 34.944 75.937 35.56C74.441 36.1467 72.6517 36.44 70.569 36.44ZM70.569 30.72C72.2704 30.72 73.517 30.1627 74.309 29.048C75.101 27.9333 75.5264 26.4227 75.585 24.516C75.6144 23.6653 75.629 22.7853 75.629 21.876C75.6584 20.9667 75.6584 20.0573 75.629 19.148C75.629 18.2387 75.6144 17.388 75.585 16.596C75.5264 14.7773 75.101 13.296 74.309 12.152C73.517 11.008 72.2704 10.4213 70.569 10.392C68.8384 10.4213 67.577 11.008 66.785 12.152C66.0224 13.296 65.6117 14.7773 65.553 16.596C65.5237 17.388 65.4944 18.2387 65.465 19.148C65.465 20.0573 65.465 20.9667 65.465 21.876C65.4944 22.7853 65.5237 23.6653 65.553 24.516C65.6117 26.4227 66.037 27.9333 66.829 29.048C67.621 30.1627 68.8677 30.72 70.569 30.72ZM86.2124 39.696C85.9484 39.696 85.7284 39.5933 85.5524 39.388C85.3764 39.212 85.2884 39.0067 85.2884 38.772C85.2884 38.6253 85.3178 38.4787 85.3764 38.332L100.336 2.428C100.424 2.19333 100.571 1.97333 100.776 1.768C101.011 1.53333 101.348 1.416 101.788 1.416H105.176C105.44 1.416 105.66 1.51867 105.836 1.724C106.012 1.9 106.1 2.10533 106.1 2.34C106.1 2.45733 106.071 2.604 106.012 2.78L91.0084 38.684C90.9204 38.8893 90.7591 39.1093 90.5244 39.344C90.3191 39.5787 89.9818 39.696 89.5124 39.696H86.2124ZM109.244 36C108.951 36 108.701 35.8973 108.496 35.692C108.291 35.4867 108.188 35.2227 108.188 34.9V14.22C108.188 13.8973 108.291 13.6333 108.496 13.428C108.701 13.2227 108.951 13.12 109.244 13.12H113.336C113.629 13.12 113.879 13.2227 114.084 13.428C114.319 13.6333 114.436 13.8973 114.436 14.22V15.716C115.023 14.8947 115.829 14.1907 116.856 13.604C117.912 13.0173 119.159 12.7093 120.596 12.68C123.999 12.6213 126.331 13.912 127.592 16.552C128.267 15.408 129.235 14.484 130.496 13.78C131.787 13.0467 133.195 12.68 134.72 12.68C136.245 12.68 137.624 13.032 138.856 13.736C140.088 14.4107 141.056 15.4667 141.76 16.904C142.493 18.312 142.86 20.1307 142.86 22.36V34.9C142.86 35.2227 142.757 35.4867 142.552 35.692C142.347 35.8973 142.097 36 141.804 36H137.448C137.155 36 136.905 35.8973 136.7 35.692C136.495 35.4867 136.392 35.2227 136.392 34.9V22.712C136.392 21.5093 136.216 20.5707 135.864 19.896C135.512 19.192 135.043 18.6933 134.456 18.4C133.899 18.1067 133.268 17.96 132.564 17.96C131.948 17.96 131.347 18.1067 130.76 18.4C130.203 18.6933 129.733 19.192 129.352 19.896C129 20.5707 128.824 21.5093 128.824 22.712V34.9C128.824 35.2227 128.721 35.4867 128.516 35.692C128.311 35.8973 128.047 36 127.724 36H123.412C123.089 36 122.825 35.8973 122.62 35.692C122.415 35.4867 122.312 35.2227 122.312 34.9V22.712C122.312 21.5093 122.136 20.5707 121.784 19.896C121.432 19.192 120.963 18.6933 120.376 18.4C119.819 18.1067 119.203 17.96 118.528 17.96C117.912 17.96 117.311 18.1213 116.724 18.444C116.137 18.7373 115.653 19.2213 115.272 19.896C114.92 20.5707 114.744 21.4947 114.744 22.668V34.9C114.744 35.2227 114.641 35.4867 114.436 35.692C114.231 35.8973 113.981 36 113.688 36H109.244ZM158.664 36.44C156.229 36.44 154.191 36.044 152.548 35.252C150.905 34.4307 149.644 33.272 148.764 31.776C147.913 30.28 147.444 28.5347 147.356 26.54C147.327 25.9533 147.312 25.2933 147.312 24.56C147.312 23.7973 147.327 23.1373 147.356 22.58C147.444 20.556 147.943 18.8107 148.852 17.344C149.761 15.848 151.037 14.704 152.68 13.912C154.323 13.0907 156.317 12.68 158.664 12.68C160.981 12.68 162.961 13.0907 164.604 13.912C166.247 14.704 167.523 15.848 168.432 17.344C169.341 18.8107 169.84 20.556 169.928 22.58C169.987 23.1373 170.016 23.7973 170.016 24.56C170.016 25.2933 169.987 25.9533 169.928 26.54C169.84 28.5347 169.356 30.28 168.476 31.776C167.625 33.272 166.379 34.4307 164.736 35.252C163.093 36.044 161.069 36.44 158.664 36.44ZM158.664 31.6C160.101 31.6 161.187 31.16 161.92 30.28C162.653 29.3707 163.049 28.0507 163.108 26.32C163.137 25.88 163.152 25.2933 163.152 24.56C163.152 23.8267 163.137 23.24 163.108 22.8C163.049 21.0987 162.653 19.7933 161.92 18.884C161.187 17.9747 160.101 17.52 158.664 17.52C157.227 17.52 156.127 17.9747 155.364 18.884C154.631 19.7933 154.235 21.0987 154.176 22.8C154.147 23.24 154.132 23.8267 154.132 24.56C154.132 25.2933 154.147 25.88 154.176 26.32C154.235 28.0507 154.631 29.3707 155.364 30.28C156.127 31.16 157.227 31.6 158.664 31.6Z" fill="#010101"/>
</svg>
